<svg xmlns="http://www.w3.org/2000/svg" width="75.218px" height="80.643px" viewBox="0 0 75.218 80.643"><path <path d="M75.018,23.255c-0.989-4.563-4.591-6.885-9.942-7.825c-2.613-0.156-5.293,1.793-6.94,3.82c-1.252,1.541-3.333,6.028-3.822,6.893c-5.949-1.925-11.767-3.808-17.542-5.676c0.651-2.652,1.253-5.224,1.923-7.779c0.537-3.869-0.308-6.869-2.132-8.673c-1.975-1.954-5.925-3.05-8.577-2.277c-3.053,0.89-5.262,2.649-5.982,5.905c-0.157,0.71-0.296,1.425-0.425,2.141c-0.381,2.117-0.753,4.237-1.14,6.415c-0.974-0.129-16.842-2.27-18.161-2.376c-0.921-0.074-1.435,0.572-1.855,1.277c-0.384,0.643-0.092,1.202,0.306,1.701c4.826,5.147,7.514,8.678,11.071,12.992c3.007,3.648,8.753,11.741,10.609,15.466c-0.298-0.038-6.286-1.376-11.303-1.963c-3.324-0.444-8.753-0.907-10.329-0.6c-0.41-0.03-0.593,0.148-0.713,0.512c-0.207,0.63,0.127,1.079,0.498,1.483c0.776,0.847,11.836,12.776,16.519,17.957c4.186,4.631,8.811,8.809,13.441,12.97c3.908,3.436,9.032,4.717,13.944,5.025c8.323,0.012,14.14-0.949,20.548-4.969c2.405-1.993,3.634-4.45,4.57-7.224c1.286-3.812,1.935-7.749,2.11-11.755c0.192-4.392,0.26-8.79,0.431-13.183c0.065-1.672,0.253-3.319,1.036-4.875C75.23,33.102,75.529,27.028,75.018,23.255z M32.21,35.947c-0.767,1.087-2.561,0.972-3.099-0.244c-0.347-1.014,0.042-3.343,0.194-3.959c0.303-1.23,1.097-1.811,2.23-1.703c1.009,0.096,1.794,0.929,1.805,2.105C33.354,33.511,33.005,34.821,32.21,35.947z M54.683,45.703c-0.519,0.84-1.416,1.267-2.172,1.062c-0.932-0.253-1.605-1.029-1.596-2.039c0.008-0.939,0.085-1.892,0.269-2.812c0.224-1.118,1.428-2.047,2.315-1.927c1.28,0.172,2.03,1.195,2.022,3.228C55.511,43.808,55.241,44.799,54.683,45.703z"/>/></svg>
