<svg xmlns="http://www.w3.org/2000/svg" width="293.296px" height="286.782px" viewBox="0 0 293.296 286.782"><path d="M0.09,116.887c0.429-3.172,2.413-5.324,4.826-7.123c3.426-2.555,7.437-3.746,11.558-4.516c6.982-1.303,13.993-1.322,20.892,0.433c5.407,1.376,10.532,3.558,15.26,6.566c0.654,0.416,0.878,0.357,1.226-0.291c1.229-2.283,2.425-4.592,3.804-6.785c1.164-1.852,1.27-3.684,0.668-5.712c-1.212-4.087-2.833-8.045-3.826-12.2c-0.612-2.559-1.237-5.115-1.801-7.685c-0.287-1.308-0.775-2.491-1.552-3.588c-1.893-2.674-3.636-5.44-5.118-8.371c-2.139-4.234-2.651-8.6-1.601-13.251c1.283-5.685,3.303-11.05,6.079-16.171C54.042,31.671,59.6,28.1,66.723,26.694c3.711-0.733,7.428-0.991,11.191-0.293c2.544,0.472,4.629,1.644,6.341,3.559c2.368,2.649,4.066,5.716,5.606,8.884c0.801,1.647,0.789,1.654,2.441,0.767c5.64-3.025,11.442-5.644,17.733-7.023c2.652-0.581,5.33-1.018,8.024-1.35c0.85-0.105,1.332-0.223,1.42-1.363c0.334-4.302,1.122-8.538,2.392-12.676c2.453-7.99,8.114-12.856,15.659-15.651c7.974-2.954,15.572-1.487,22.723,2.759c4.312,2.561,8.191,5.613,10.248,10.413c1.886,4.401,2.857,9.034,3.407,13.768c0.032,0.276,0.034,0.559,0.011,0.836c-0.016,0.195-0.097,0.386-0.156,0.607c0.424,0.239,0.901,0.108,1.352,0.11c24.878,0.089,49.756,0.17,74.634,0.253c0.68,0.002,1.361-0.008,2.039,0.031c1.128,0.065,2.026,0.549,2.413,1.654c0.37,1.056-0.169,1.828-0.938,2.515c-4.058,3.622-8.097,7.264-12.153,10.887c-13.841,12.359-27.783,24.605-41.451,37.158c-0.35,0.322-0.689,0.655-1.032,0.982c0.231,0.432,0.596,0.243,0.865,0.235c5.516-0.166,11.031-0.35,16.546-0.537c6.515-0.221,13.025-0.56,19.545-0.625c1.147-0.012,2.166,0.118,2.679,1.333c0.516,1.224,0.343,2.324-0.529,3.337c-3.706,4.306-7.633,8.408-11.499,12.568c-11.321,12.182-24.079,22.69-37.597,32.308c-1.071,0.762-1.471,1.643-1.564,2.855c-0.185,2.43-0.418,4.858-0.66,7.283c-0.116,1.155,0.698,2.114,1.377,2.415c2.928,1.298,5.879,2.658,9.126,3.002c4.777,0.505,9.565,0.652,14.354,0.178c0.451-0.045,0.899-0.31,1.307-0.545c0.47-0.272,0.903-0.065,1.344,0.041c0.183-1.034-0.011-1.612-1.149-1.992c-2.26-0.755-3.071-2.911-2.502-5.296c0.247-1.035-0.789-1.705-1.558-2.181c-1.104-0.684-2.125-1.412-2.85-2.492c-1.399-2.085-0.929-3.932,1.357-4.99c0.787-0.364,1.125-0.648,1.163-1.649c0.176-4.672,5.472-7.303,9.423-4.776c1.866,1.193,3.484,2.668,4.982,4.287c0.281,0.304,0.529,0.659,0.505,1.053c-0.079,1.303,0.615,2.287,1.307,3.252c3.478,4.852,5.004,10.304,4.681,16.203c-0.372,6.782-2.452,11.673-9.9,14.589c-2.409,0.943-4.96,1.283-7.502,1.253c-7.419-0.087-14.815-0.492-21.961-2.788c-0.068-0.022-0.154,0.011-0.366,0.031c0.524,1.669,1.051,3.309,1.549,4.958c0.161,0.531,0.644,0.559,1.021,0.727c4.26,1.903,8.438,3.974,12.606,6.07c12.667,6.368,21.257,16.294,26.285,29.497c2.739,7.191,3.545,14.561,2.678,22.128c-0.213,1.859,0.111,2.852,1.857,3.803c5.631,3.069,11.551,5.453,17.461,7.881c6.959,2.859,14.188,4.823,21.481,6.598c1.104,0.269,1.466-0.244,2.062-0.956c3.013-3.602,6.522-6.703,10.184-9.619c1.209-0.963,2.687-1.522,4.232-1.847c0.774-0.163,1.448-0.076,1.96,0.522c0.572,0.668,0.387,1.395,0.04,2.121c-0.435,0.91-1.056,1.693-1.676,2.469c-3.343,4.187-6.125,8.757-9.069,13.216c-0.241,0.365-0.572,0.745-0.623,1.148c-0.193,1.52-1.103,1.537-2.37,1.499c-4.312-0.13-8.595,0.603-12.922,0.468c-7.145-0.222-14.265-0.59-21.351-1.642c-5.665-0.84-11.369-1.481-16.899-2.993c-1.827-0.5-2.848-0.18-4.003,1.274c-1.894,2.384-4.296,4.28-6.936,6.107c1.017,0.301,1.888-0.067,2.713-0.207c1.741-0.295,3.441-0.111,5.113,0.228c3.06,0.621,4.579,3.934,3.127,6.696c-1.075,2.044-2.788,3.473-4.747,4.615c-3.488,2.033-7.321,3.035-11.268,3.643c-3.005,0.463-6.03,0.617-9.075,0.512c-2.754-0.095-5.353-0.681-7.766-2.04c-1.452-0.818-2.92-1.608-4.444-2.445c-0.758,5.011-2.776,9.507-5.163,13.862c-0.264,0.482-0.561,0.877,0.069,1.377c0.421,0.334,0.333,0.944-0.062,1.286c-1.741,1.51-3.419,3.113-5.724,3.797c-1.029,0.305-1.961,0.126-2.901-0.253c-1.475-0.595-2.867-1.335-4.095-2.356c-0.549-0.457-1.23-0.266-1.842-0.393c-5.455-1.129-10.441-3.511-15.474-5.759c-7.127-3.182-13.899-7.058-20.756-10.761c-1.739-0.939-3.531-1.13-5.381-1.37c-11.872-1.538-23.77-2.977-35.252-6.566c-13.512-4.224-24.549-12.043-33.356-23.115c-3.711-4.666-7.384-9.339-10.243-14.594c-0.069-0.126-0.093-0.313-0.456-0.272c-0.585,2.854-1.178,5.756-1.774,8.657c-0.759,3.697-1.412,7.417-2.1,11.126c-0.667,3.598-2.331,6.517-4.953,8.933c-1.128,1.039-2.426,1.88-3.294,3.2c-0.337,0.513-1.019,0.914-1.554,0.711c-1.057-0.4-1.963,0.006-2.955,0.126c-1.576,0.191-3.152-0.016-4.066-1.594c-0.238-0.411-0.512-0.289-0.792-0.29c-0.839-0.005-1.679,0.012-2.518,0.039c-1.42,0.045-2.361-0.567-2.768-1.955c-0.123-0.418-0.359-0.814-0.412-1.237c-0.111-0.881-0.307-1.393-1.419-1.557c-1.667-0.245-2.481-1.671-2.177-3.416c0.364-2.087,1.078-4.067,2.175-5.891c2.048-3.406,5.289-4.932,9.021-5.637c0.957-0.181,1.901,0.066,2.896,0.372c0.329-2.727,0.655-5.449,0.985-8.172c0.719-5.925,1.787-11.793,2.999-17.633c0.935-4.508,1.97-8.996,2.961-13.493c0.216-0.978-0.121-1.906-0.286-2.841c-1.544-8.784-1.994-17.633-1.395-26.519c0.772-11.461,3.736-22.472,7.141-33.38c0.13-0.418,0.27-0.833,0.376-1.257c0.035-0.14-0.024-0.303-0.053-0.586c-2.066,1.831-4.088,3.557-6.28,5.077c-5.039,3.495-10.511,5.963-16.593,6.882c-3.603,0.545-7.228,0.674-10.753-0.611c-3.631-1.324-4.405-2.799-3.433-6.576c0.554-2.152,1.59-4.063,2.889-5.845c0.759-1.042,0.706-1.119-0.522-1.308c-1.608-0.248-3.202-0.57-4.757-1.076c-3.267-1.061-5.743-2.955-6.841-6.346c0-0.08,0-0.16,0-0.24C0.189,118.222-0.15,117.524,0.09,116.887z"/><path fill="#B1B1B1" d="M219.725-30.427c-0.766,0.528-1.608,0.132-2.412,0.199c-0.069-0.048-0.09-0.094-0.064-0.137c0.025-0.041,0.05-0.062,0.075-0.062C218.125-30.427,218.925-30.427,219.725-30.427z"/><path fill="#494949" d="M0.09,116.887c-0.064,0.656,0.248,1.351-0.205,1.966c0-0.64,0-1.28,0-1.92C-0.055,116.879,0.013,116.864,0.09,116.887z"/><path fill="#E5E5E5" d="M217.325-30.427c0,0.066-0.004,0.133-0.012,0.199c-0.397,0.005-0.794,0.009-1.192,0.014c0.003-0.071,0.004-0.142,0.003-0.213C216.525-30.427,216.925-30.427,217.325-30.427z"/><path fill="#FEBB51" d="M251.159,32.916c-2.492,2.235-4.713,4.232-6.94,6.223c-15.26,13.65-30.652,27.152-45.759,40.973c-0.914,0.837-1.791,1.714-2.7,2.557c-0.705,0.654-1.33,1.363-0.919,2.393c0.401,1.006,1.339,1.146,2.291,1.207c3.921,0.253,7.834-0.052,11.748-0.18c8.712-0.283,17.418-0.757,26.136-0.873c0.234-0.003,0.468,0,0.723,0c0.054,0.636-0.429,0.89-0.719,1.221c-13.518,15.467-28.205,29.668-45.04,41.539c-0.49,0.345-1.024,0.653-1.441,1.073c-2.191,2.209-4.94,2.729-7.916,3.014c-9.847,0.943-19.701,1.247-29.589,0.999c-10.177-0.256-20.241-1.38-30.234-3.273c-6.395-1.211-12.809-2.365-18.918-4.692c-14.872-5.663-25.636-15.811-30.953-30.774c-5.474-15.406-2.129-29.441,9.133-41.42c2.909-3.094,6.256-5.71,9.642-8.269c7.825-5.912,16.74-9.117,26.353-10.463c3.984-0.558,7.856-1.64,11.861-2.107c9.992-1.167,19.996-1.636,30.045-1.129c4.433,0.224,8.905,0.349,13.253,1.138c5.655,1.027,11.301,0.535,16.942,0.569c20.395,0.122,40.792,0.025,61.187,0.272C249.821,32.921,250.297,32.916,251.159,32.916z"/><path fill="#423932" d="M188.564,266.202c-0.18,1.894-0.684,3.642-1.312,5.335c-1.322,3.565-3.035,6.953-5.017,10.194c-0.402,0.657-0.287,1.526-1.123,2.025c-1.463,0.873-2.855,1.102-4.371,0.209c-0.492-0.29-0.961-0.489-0.946-1.214c0.013-0.605-0.44-0.925-1.037-0.929c-4.715-0.033-8.929-1.896-13.163-3.641c-9.434-3.887-18.287-8.937-27.254-13.751c-4.303-2.31-8.67-4.513-12.766-7.192c-0.691-0.452-1.286-0.448-1.73,0.284c-0.41,0.675-0.002,1.153,0.537,1.488c1.559,0.969,3.141,1.9,4.709,2.854c0.257,0.156,0.623,0.179,0.755,0.641c-0.917,0.35-1.802-0.067-2.64-0.186c-8.194-1.167-16.391-2.335-24.398-4.509c-4.086-1.109-8.102-2.426-11.939-4.248c-0.629-0.298-0.889-0.659-0.845-1.371c0.46-7.363,1.437-14.589,5.036-21.218c2.974-5.478,6.999-10.063,11.612-14.199c5.215-4.677,10.915-8.705,16.719-12.588c6.611-4.423,13.447-8.475,20.65-11.872c6.499-3.065,13.029-6.065,19.884-8.277c5.777-1.864,11.681-3.092,17.72-3.79c5.351-0.619,10.65-0.316,15.97,0.256c7.255,0.78,14.394,2.173,21.485,3.853c0.57,0.135,1.023,0.39,1.446,0.782c3.257,3.012,5.919,6.493,8.003,10.393c2.393,4.476,4.595,9.049,5.763,14.029c0.987,4.212,1.33,8.461,1.008,12.805c-0.269,3.624-0.592,7.217-1.462,10.751c-0.118,0.477-0.258,1.123,0.391,1.352c0.65,0.229,1.247-0.152,1.529-0.678c0.458-0.856,1.162-1.608,1.183-2.686c0.013-0.693,0.333-1.021,1.081-0.561c5.604,3.452,11.75,5.746,17.795,8.246c7.31,3.022,14.901,5.154,22.606,6.893c0.77,0.174,1.572,0.241,2.362,0.277c0.456,0.021,0.92-0.215,0.972-0.72c0.163-1.599,1.415-2.479,2.37-3.488c2.36-2.494,4.989-4.716,7.623-6.916c0.737-0.615,1.709-0.948,2.852-1.559c-0.712,1.451-1.627,2.339-2.364,3.347c-2.877,3.932-5.525,8.017-8.087,12.157c-0.488,0.788-1.007,1.125-1.986,1.148c-4.303,0.099-8.59,0.634-12.908,0.453c-6.126-0.258-12.241-0.515-18.33-1.379c-6.22-0.883-12.432-1.745-18.574-3.097c-1.375-0.303-2.868-0.062-4.307-0.076c-0.512-0.005-0.792,0.359-1.066,0.691c-5.403,6.55-12.667,10.211-20.402,13.126c-3.62,1.364-7.27,2.645-11.101,3.315c-0.399,0.07-0.74,0.206-1.099-0.151c-0.648-0.645-1.342-0.616-2.011,0.002c-0.914,0.844-2.05,0.94-3.215,0.999c-6.629,0.335-13.265,0.179-19.897,0.259c-0.558,0.007-1.112-0.005-1.665,0.147c-0.606,0.167-1.158,0.013-1.688-0.366c-4.803-3.433-9.63-6.834-14.421-10.285c-0.837-0.603-1.487-1.416-1.948-2.388c-0.517-1.09-1.68-1.542-2.543-2.292c-1.238-1.077-2.568-2.022-4.022-2.794c-0.709-0.377-0.869-0.165-0.885,0.575c-0.019,0.869,0.178,1.462,0.988,1.974c2.302,1.453,4.293,3.242,5.911,5.488c1.152,1.6,3.003,2.487,4.587,3.616c8.935,6.366,17.914,12.669,26.882,18.988c0.33,0.232,0.606,0.454,0.787,0.854c0.547,1.212,1.563,1.262,2.317,0.108c2.512-3.846,5.458-7.368,8.199-11.043C187.905,266.47,188.03,266.245,188.564,266.202z"/><path fill="#FEBB51" d="M50.483,153.367c-1.642,1.979-2.046,4.428-2.59,6.824c-1.776,7.828-3.553,15.657-5.345,23.482c-0.102,0.446-0.193,0.923-0.618,1.388c-0.451-3.068-0.616-6.064-0.76-9.062c-0.873-18.121,3.566-35.226,9.965-51.95c0.869-2.271,1.882-4.489,2.866-6.714c0.417-0.943,1.128-1.022,1.655-0.133c5.113,8.626,13.311,13.217,22.13,17.016c8.789,3.787,17.981,6.067,27.422,7.465c7.125,1.054,14.274,1.755,21.48,1.952c11.423,0.312,22.681-0.829,33.714-3.801c7.467-2.012,15.002-3.149,22.747-2.7c0.655,0.038,1.169,0.006,1.028,0.948c-1.224,8.177,0.186,16.065,2.67,23.831c0.437,1.368,0.856,2.741,1.271,4.116c0.102,0.339,0.295,0.737,0.205,1.034c-0.415,1.362,0.379,1.844,1.433,2.31c6.975,3.087,13.913,6.254,20.315,10.452c0.563,0.369,1.35,0.551,1.54,1.366c-0.071,0.164-0.178,0.192-0.32,0.083c-4.926-1.008-9.874-1.885-14.848-2.628c-13.53-2.022-26.69-0.472-39.492,4.177c-20.205,7.336-38.582,17.896-55.005,31.768c-6.612,5.585-11.984,12.189-15.038,20.444c-1.649,4.458-2.271,9.123-2.779,13.811c-0.107,0.992-0.18,1.988-0.271,3c-0.503,0.095-0.821-0.258-1.183-0.452c-5.686-3.05-10.748-6.918-15.11-11.677c-6.118-6.675-11.861-13.628-15.894-21.827c-0.356-0.723-0.418-1.358-0.241-2.161c3.544-16.065,7.643-31.996,11.63-47.953c0.422-1.688,1.323-3.242,1.646-4.977c-0.054-1.253,0.509-2.411,0.586-3.635c0.374-5.897-3.043-8.267-8.471-7.985c-1.934,0.101-3.916,0.44-5.443,1.893C51.129,153.308,50.777,153.254,50.483,153.367z"/><path fill="#423932" d="M156.543,134.957c6.197-0.034,10.476,0.097,14.738-0.288c3.923-0.355,7.863-0.548,11.764-1.13c1.519-0.227,1.724-0.034,1.424,1.27c-0.104,0.454-0.3,0.597-0.72,0.59c-0.76-0.013-1.522,0.028-2.279-0.016c-7.005-0.405-13.823,0.641-20.574,2.452c-6.195,1.661-12.487,2.935-18.878,3.513c-5.284,0.477-10.6,0.738-15.91,0.508c-11.319-0.49-22.553-1.731-33.549-4.549c-8.976-2.3-17.509-5.706-25.383-10.694c-4.837-3.064-8.123-7.461-11.123-12.167c-0.337-0.529-0.139-0.899,0.092-1.318c1.255-2.272,2.38-4.629,3.808-6.787c1.751-2.648,1.537-5.304,0.704-8.128c-1.276-4.322-2.996-8.506-3.989-12.915c-0.446-1.981-0.958-3.948-1.347-5.94c-0.432-2.211-1.48-4.086-2.76-5.906c-1.975-2.81-3.764-5.737-5.073-8.938c-1.55-3.789-1.094-7.562-0.106-11.373c1.585-6.115,3.829-11.923,7.661-17.022c2.407-3.203,5.711-5.056,9.459-6.183c4.13-1.242,8.341-1.683,12.644-1.077c3.083,0.434,5.04,2.397,6.723,4.766c1.929,2.716,3.404,5.679,4.739,8.722c0.264,0.601,0.035,0.831-0.4,1.154c-3.658,2.719-7.17,5.618-10.273,8.962c-5.619,6.057-9.35,13.115-10.607,21.321c-1.12,7.314-0.832,14.571,1.903,21.557c2.258,5.768,5.406,11.026,9.406,15.768c5.134,6.087,11.423,10.654,18.586,14.042c5.407,2.557,11.168,4.014,16.996,5.218c5.767,1.191,11.564,2.232,17.395,3.053c3.586,0.505,7.197,0.818,10.815,1.055C147.773,134.827,153.115,135.012,156.543,134.957z"/><path fill="#423932" d="M50.483,153.367c2.623-2.403,5.741-2.844,9.125-2.376c3.667,0.507,5.927,2.998,6.044,6.695c0.056,1.782-0.345,3.461-0.945,5.112c-0.041-0.609-0.243-1.134-0.931-1.194c-0.718-0.062-1.048,0.441-1.29,1.037c-1.262,3.116-1.952,6.397-2.767,9.639c-1.98,7.873-3.967,15.745-5.861,23.639c-2.654,11.06-5.298,22.123-7.577,33.268c-0.724,3.542-1.376,7.101-1.984,10.665c-0.477,2.799-1.331,5.386-3.393,7.456c-0.588,0.59-1.074,1.241-1.922,1.549c-0.954,0.346-1.357,1.311-1.923,2.073c-0.392,0.527-0.661,0.818-1.258,0.122c-0.604-0.704-1.327-0.561-1.92,0.185c-0.699,0.879-1.717,0.672-2.465-0.09c-0.982-1-1.294-2.043-1.057-3.366c0.094-0.523-0.123-0.947-0.744-1.016c-0.574-0.064-1.044,0.072-1.244,0.674c-0.087,0.261-0.145,0.538-0.168,0.812c-0.143,1.717-0.246,1.786-1.957,1.673c-0.586-0.039-0.814-0.306-0.993-0.827c-0.538-1.564-0.575-3.136-0.123-4.705c0.232-0.806,0.411-1.595-0.625-1.821c-0.959-0.209-1.271,0.63-1.531,1.343c-0.203,0.556,0.184,1.658-0.95,1.334c-0.977-0.279-0.475-1.161-0.341-1.836c0.322-1.63,1.013-3.113,1.86-4.517c1.593-2.641,4.241-3.663,7.043-4.316c1.158-0.27,2.38,0.137,3.6,0.007c0.9-0.096,1.362-0.407,1.436-1.236c0.375-4.198,0.833-8.387,1.479-12.55c0.683-4.398,1.44-8.784,2.384-13.135c0.868-4.002,1.748-8.002,2.637-12c2.158-9.694,4.32-19.388,6.489-29.08c0.625-2.794,1.31-5.576,1.901-8.377c0.254-1.201,1.115-2.197,1.008-3.533C51.46,153.898,51.247,153.474,50.483,153.367z"/><path fill="#423932" d="M171.317,30.235c-1.935-0.215-3.865-0.49-5.806-0.636c-6.525-0.49-13.059-0.976-19.605-0.705c-5.209,0.215-10.422,0.423-15.607,1.099c-2.483,0.323-4.977,0.584-7.453,0.968c-0.836,0.129-0.849-0.34-0.8-0.908c0.195-2.261,0.515-4.505,0.969-6.728c0.639-3.13,1.345-6.251,2.869-9.092c2.53-4.716,6.552-7.81,11.376-9.818c7.778-3.237,15.155-1.859,22.152,2.408c3.125,1.905,6.038,4.106,7.917,7.331c1.704,2.925,2.434,6.216,3.204,9.483c0.483,2.051,0.437,4.199,1.177,6.197C171.628,30.129,171.801,30.102,171.317,30.235z"/><path fill="#423932" d="M186.336,146.836c3.758,0.906,7.061,2.767,10.798,3.085c1.705,0.145,3.414,0.317,5.123,0.344c3.032,0.048,6.067,0.118,9.096-0.202c1.684-0.178,2.845-1.093,2.802-2.359c1.962,3.17,4.144,3.366,6.741,0.614c0.314-0.333,0.543-0.666,0.535-1.153c-0.009-0.594-0.234-1.039-0.821-1.16c-0.555-0.114-1.125-0.145-1.374,0.584c-0.294,0.859-1.105,1.078-1.828,1.399c-0.3,0.133-0.582,0.129-0.717-0.18c-0.349-0.798-1.035-1.685-0.901-2.409c0.264-1.417-0.543-1.587-1.463-1.793c-0.9-0.201-1.626-0.549-2.055-1.447c-0.394-0.823-0.071-1.257,0.678-1.4c0.777-0.148,1.549-0.366,2.364-0.32c0.627,0.035,1.143-0.277,1.181-0.932c0.037-0.638-0.434-1.042-1.03-1.141c-0.502-0.083-1.063-0.124-1.541,0.015c-1.162,0.337-1.949-0.234-2.621-0.996c-0.703-0.798-0.601-1.822-0.359-2.743c0.21-0.801,1.09-0.892,1.701-0.775c1.146,0.22,2.311-0.054,3.449,0.303c0.63,0.197,1.237-0.14,1.383-0.827c0.155-0.727-0.403-1.044-0.992-1.276c-1.065-0.419-2.21-0.179-3.31-0.425c-1.201-0.269-2.284-0.567-2.557-1.944c-0.306-1.541,0.361-3.069,1.608-3.856c1.403-0.885,3.318-0.766,4.726,0.164c1.074,0.709,2.016,1.567,2.991,2.387c0.536,0.451,0.886,1.018,1.011,1.813c0.177,1.134,0.886,2.113,1.53,3.058c2.113,3.098,3.8,6.367,4.339,10.136c0.656,4.585,0.652,9.112-1.877,13.201c-1.998,3.23-5.235,4.743-8.821,5.42c-4.183,0.79-8.38,0.649-12.581-0.148c-1.705-0.323-3.494,0.023-5.244-0.281c-2.907-0.506-5.779-1.127-8.572-2.085c-0.445-0.153-0.944-0.32-1.094-0.849C187.551,154.825,186.597,150.969,186.336,146.836z"/><path fill="#E0B67D" d="M19.804,121.712c-1.646,0.638-3.153,1.522-4.583,2.549c-1.047,0.752-2.164,0.234-3.245,0.114c-2.183-0.242-4.323-0.699-6.3-1.691c-1.687-0.846-3.07-1.97-3.489-3.979c-0.311-1.492,0.194-2.76,0.932-3.959c1.953-3.173,5.048-4.802,8.417-5.959c6.367-2.187,12.922-2.594,19.594-1.989c7.182,0.651,13.601,3.417,19.783,6.892c0.387,0.218,1.109,0.402,0.973,0.881c-0.146,0.514-0.878,0.387-1.375,0.424c-3.502,0.257-7.004,0.515-10.49,0.947c-0.57,0.071-0.989,0.258-1.265,0.755c-1.265,0.931-2.761,0.999-4.239,1.132c-0.811-0.666-1.678-0.679-2.679-0.42c-1.774,0.46-3.57,0.836-5.329,1.358c-0.957,0.284-1.92,0.553-2.705,1.217c-0.601,0.497-1.351,0.578-2.071,0.754C21.018,120.913,20.256,121.01,19.804,121.712z"/><path fill="#E0B67D" d="M50.504,118.737c-0.581,1.407-0.822,3.176-1.828,4.164c-1.783,1.751-3.192,3.819-5.096,5.465c-5.546,4.795-11.625,8.535-18.891,10.041c-3.74,0.775-7.504,1.091-11.231-0.114c-2.61-0.844-2.813-1.173-2.287-3.867c0.438-2.246,1.495-4.255,3.065-5.855c1.078-1.099,2.724-1.512,4.247-1.577c7.119-0.308,14.134-1.158,20.878-3.588c2.768-0.997,5.501-2.089,8.258-3.117c0.802-0.299,1.143-1.235,2.026-1.399C49.903,118.842,50.086,118.513,50.504,118.737z"/><path fill="#F5ECD4" d="M193.449,265.241c3.923-0.92,7.56-2.194,11.16-3.578c2.791-1.073,5.525-2.275,8.145-3.721c0.513-0.283,1.041-0.498,1.59-0.352c2.002,0.53,3.931,0.056,5.859-0.368c1.493-0.328,2.958-0.05,4.393,0.21c1.614,0.292,2.354,2.208,1.515,3.702c-1.011,1.798-2.613,2.974-4.393,3.934c-3.591,1.938-7.494,2.797-11.493,3.294c-2.259,0.281-4.534,0.278-6.811,0.306C199.743,268.713,196.62,267.269,193.449,265.241z"/><path fill="#C28445" d="M34.447,117.652c1.436-0.319,2.871-0.638,4.307-0.956c0.064,1.022,0.658,1.212,1.568,1.103c2.018-0.242,4.046-0.406,6.067-0.632c0.466-0.052,0.848,0.141,1.262,0.253l-0.018-0.015c-5.484,3.072-11.346,5.085-17.511,6.241c-3.91,0.733-7.865,1.031-12.052,1.167c0.751-0.724,1.553-0.931,2.294-1.25c0.607-0.26,1.44-0.418,1.204-1.337c-0.266-1.033-1.077-0.672-1.765-0.515c-0.091-0.748,0.436-0.901,0.99-1.075c0.932-0.293,1.962-0.247,2.811-0.819c0.504,0.813,1.169,0.89,2.036,0.573c2.091-0.765,4.249-1.313,6.433-1.733C32.953,118.488,33.745,118.197,34.447,117.652z"/><path fill="#FEFEFE" d="M166.317,266.606c6.237,0,12.474,0,18.73,0c-2.068,2.755-4.197,5.566-6.29,8.402c-0.384,0.52-0.647,0.245-0.972,0.017c-3.845-2.698-7.69-5.396-11.535-8.094C166.273,266.823,166.295,266.715,166.317,266.606z"/><path fill="#413831" d="M208.604,135.206c-0.681-0.678-1.445-1.143-1.272-2.031c0.129-0.663,0.857-0.864,1.469-1.055c0.24-0.075,0.463-0.075,0.658,0.117c0.272,0.268,0.108,0.518-0.049,0.741C208.975,133.591,208.72,134.276,208.604,135.206z"/><path fill="#9B9B9B" d="M211.292,181.274c0.107-0.028,0.214-0.055,0.321-0.083c0.173-0.108,0.339-0.163,0.509,0.017c0.088,0.093,0.135,0.224,0.023,0.263C211.833,181.578,211.538,181.504,211.292,181.274z"/><path d="M157.137,48.431c-0.006,1.356-0.093,2.257-0.497,3.11c-0.911,1.927-2.804,2.343-4.407,0.953c-0.737-0.639-1.242-1.444-1.658-2.313c-1.097-2.293-1.639-4.716-1.698-7.251c-0.019-0.828,0.176-1.551,0.856-2.128c1.359-1.152,2.115-1.166,3.414,0.068C155.446,43.049,157.063,45.575,157.137,48.431z"/><path d="M104.78,67.498c-0.087,1.362-0.298,2.576-1.515,3.182c-1.197,0.597-2.334,0.186-3.343-0.577c-1.993-1.508-2.817-3.647-3.332-6.004c-0.373-1.704,0.035-3.313,0.315-4.941c0.2-1.161,1.462-1.747,2.503-1.206c0.774,0.402,1.59,0.845,2.017,1.637c1.196,2.223,2.682,4.318,3.192,6.86C104.694,66.837,104.739,67.231,104.78,67.498z"/><path fill="#010100" d="M34.447,117.652c-0.12,0.706-0.616,0.944-1.253,1.078c-2.761,0.584-5.509,1.211-8.168,2.184c-0.954,0.349-1.453-0.074-1.421-1.096c0.234-0.404,0.615-0.579,1.038-0.739c2.607-0.986,5.324-1.554,8.034-2.155C33.445,116.753,34.113,116.786,34.447,117.652z"/></svg>