<svg xmlns="http://www.w3.org/2000/svg" viewBox="0 0 469.898 494.371"><path <path d="M468.539,135.944c-6.177-28.5-28.677-43-62.092-48.872c-16.323-0.975-33.06,11.197-43.344,23.856c-7.82,9.627-20.818,37.651-23.873,43.054c-37.156-12.023-73.493-23.781-109.564-35.453c4.063-16.566,7.827-32.63,12.009-48.585c3.353-24.166-1.925-42.902-13.314-54.166C216.026,3.576,191.354-3.27,174.791,1.559c-19.067,5.559-32.866,16.544-37.364,36.881c-0.981,4.436-1.849,8.9-2.655,13.372c-2.382,13.225-4.706,26.46-7.119,40.065c-6.082-0.808-105.19-14.178-113.425-14.842C8.474,76.57,5.266,80.608,2.64,85.01c-2.397,4.019-0.572,7.506,1.911,10.623c30.143,32.145,46.932,54.203,69.143,81.145c18.782,22.783,54.667,73.333,66.259,96.596c-1.862-0.238-39.259-8.596-70.592-12.263c-20.763-2.77-54.667-5.667-64.513-3.748c-2.562-0.187-3.704,0.922-4.452,3.198c-1.292,3.932,0.795,6.736,3.108,9.26c4.845,5.289,73.921,79.792,103.171,112.156c26.142,28.925,55.033,55.016,83.946,81.006c24.408,21.461,56.408,29.461,87.093,31.387c51.981,0.074,88.314-5.926,128.336-31.037c15.021-12.445,22.698-27.791,28.543-45.12c8.03-23.809,12.085-48.399,13.178-73.421c1.198-27.433,1.623-54.898,2.691-82.338c0.407-10.44,1.583-20.73,6.468-30.449C469.862,197.444,471.728,159.507,468.539,135.944z M201.176,215.215c-4.789,6.791-15.996,6.072-19.358-1.521c-2.167-6.333,0.26-20.877,1.209-24.726c1.894-7.685,6.851-11.31,13.928-10.637c6.305,0.6,11.202,5.8,11.276,13.149C208.317,200.002,206.137,208.18,201.176,215.215z M341.536,276.145c-3.24,5.247-8.841,7.913-13.567,6.63c-5.824-1.581-10.024-6.426-9.967-12.732c0.052-5.866,0.532-11.818,1.681-17.56c1.398-6.985,8.919-12.783,14.461-12.036c7.992,1.077,12.677,7.465,12.627,20.164C346.703,264.31,345.02,270.503,341.536,276.145z"/> fill="#fff"/></svg>
