<svg xmlns="http://www.w3.org/2000/svg"><symbol id="mastodon-svg-logo-full" viewBox="0 0 500 145.781"><path d="M58.704,80.612c-3.418-6.86-14-21.766-19.539-28.484c-6.55-7.945-11.5-14.449-20.389-23.928c-0.732-0.919-1.27-1.947-0.564-3.133c0.774-1.298,1.72-2.489,3.417-2.352c2.428,0.196,31.654,4.138,33.447,4.377c0.712-4.012,1.397-7.915,2.099-11.815c0.237-1.319,0.494-2.635,0.783-3.943c1.326-5.997,5.395-9.236,11.018-10.875c4.884-1.424,12.159,0.595,15.797,4.193c3.358,3.322,4.915,8.846,3.926,15.973c-1.233,4.705-2.343,9.442-3.541,14.327c10.636,3.442,21.352,6.909,32.308,10.455c0.901-1.593,4.733-9.857,7.04-12.696c3.032-3.733,7.968-7.322,12.781-7.035c9.853,1.732,16.488,6.007,18.31,14.411c0.94,6.948,0.39,18.135-3.423,28.327c-1.44,2.866-1.787,5.9-1.907,8.979c-0.315,8.091-0.44,16.191-0.794,24.28c-0.322,7.378-1.518,14.63-3.886,21.65c-1.724,5.11-3.987,9.635-8.417,13.305c-11.802,7.405-22.516,9.174-37.844,9.152c-9.049-0.568-18.485-2.927-25.682-9.255c-8.526-7.664-17.045-15.358-24.754-23.887c-8.625-9.544-28.995-31.513-30.423-33.073c-0.682-0.744-1.297-1.571-0.916-2.73c0.221-0.671,0.558-0.998,1.313-0.943c2.904-0.566,12.901,0.288,19.024,1.105C47.127,78.078,58.155,80.542,58.704,80.612z" fill="#FFB235"/><path d="M133.395,64.235h16.309c5.64,0,10.448,1.988,14.423,5.963c3.975,3.975,5.963,8.784,5.963,14.423 c0,5.64-1.988,10.448-5.963,14.423c2.514,1.19,4.842,2.837,6.982,4.944c4.757,4.791,7.135,10.568,7.135,17.329 c0,6.762-2.388,12.53-7.161,17.303c-4.774,4.774-10.542,7.161-17.303,7.161h-20.387c-1.121,0-2.082-0.399-2.88-1.198 c-0.798-0.798-1.198-1.758-1.198-2.88V68.312c0-1.121,0.399-2.081,1.198-2.88C131.313,64.635,132.274,64.235,133.395,64.235z M137.472,72.389v24.464h12.232c3.364,0,6.243-1.198,8.639-3.593s3.593-5.275,3.593-8.639c0-3.364-1.198-6.243-3.593-8.639 s-5.275-3.593-8.639-3.593L137.472,72.389L137.472,72.389z M137.472,105.008v32.618h16.309c4.518,0,8.366-1.588,11.544-4.765 c3.177-3.177,4.765-7.025,4.765-11.544c0-4.518-1.588-8.366-4.765-11.544c-3.178-3.177-7.026-4.765-11.544-4.765L137.472,105.008 L137.472,105.008z M119.691,76.849c-0.02,1.091-0.516,2.917-1.544,4.581c-0.955,1.547-2.607,2.333-4.001,1.955 c-1.718-0.466-2.956-1.895-2.939-3.754c0.015-1.73,0.157-3.485,0.496-5.178c0.412-2.06,2.63-3.769,4.264-3.549 C118.324,71.22,119.705,73.104,119.691,76.849z M71.049,63.014c0.991,2.239,4.296,2.451,5.708,0.448 c1.463-2.075,2.106-4.486,2.081-6.999c-0.022-2.167-1.466-3.7-3.325-3.877c-2.087-0.199-3.549,0.871-4.107,3.137 C71.126,56.858,70.41,61.147,71.049,63.014z M219.501,134.468c0.915,0,1.698,0.326,2.35,0.977c0.651,0.652,0.977,1.435,0.977,2.35 s-0.319,1.705-0.957,2.371c-4.298,3.743-9.358,5.615-15.181,5.615c-6.433,0-11.923-2.273-16.47-6.821 c-4.548-4.547-6.821-10.037-6.821-16.47c0-6.432,2.273-11.922,6.821-16.47c4.547-4.547,10.037-6.821,16.47-6.821 c6.432,0,11.922,2.274,16.47,6.821c4.547,4.548,6.821,10.038,6.821,16.47c0,0.915-0.326,1.699-0.977,2.35 c-0.652,0.652-1.435,0.977-2.35,0.977h-36.309c0.609,3.189,2.135,6.004,4.575,8.443c3.244,3.244,7.168,4.866,11.77,4.866 c4.159,0,7.736-1.316,10.731-3.951C218.031,134.704,218.725,134.468,219.501,134.468z M223.036,119.162 c-0.61-3.188-2.136-6.003-4.575-8.443c-3.244-3.244-7.168-4.866-11.77-4.866c-4.603,0-8.526,1.622-11.77,4.866 c-2.44,2.44-3.966,5.255-4.575,8.443H223.036z M269.474,134.468c0.915,0,1.698,0.326,2.35,0.977c0.651,0.652,0.977,1.435,0.977,2.35 s-0.319,1.705-0.957,2.371c-4.298,3.743-9.358,5.615-15.181,5.615c-6.433,0-11.923-2.273-16.47-6.821 c-4.548-4.547-6.821-10.037-6.821-16.47c0-6.432,2.273-11.922,6.821-16.47c4.547-4.547,10.037-6.821,16.47-6.821 c6.432,0,11.922,2.274,16.47,6.821c4.547,4.548,6.821,10.038,6.821,16.47c0,0.915-0.326,1.699-0.977,2.35 c-0.652,0.652-1.435,0.977-2.35,0.977h-36.309c0.609,3.189,2.135,6.004,4.575,8.443c3.244,3.244,7.168,4.866,11.77,4.866 c4.159,0,7.736-1.316,10.731-3.951C268.004,134.704,268.697,134.468,269.474,134.468z M273.009,119.162 c-0.61-3.188-2.136-6.003-4.575-8.443c-3.244-3.244-7.168-4.866-11.77-4.866c-4.603,0-8.526,1.622-11.77,4.866 c-2.44,2.44-3.966,5.255-4.575,8.443H273.009z M288.451,64.235h16.309c5.64,0,10.448,1.988,14.423,5.963s5.963,8.784,5.963,14.423 c0,5.64-1.988,10.448-5.963,14.423c2.514,1.19,4.842,2.837,6.982,4.944c4.757,4.791,7.135,10.568,7.135,17.329 c0,6.762-2.388,12.53-7.161,17.303c-4.774,4.774-10.542,7.161-17.303,7.161h-20.387c-1.121,0-2.082-0.399-2.88-1.198 c-0.798-0.798-1.198-1.758-1.198-2.88V68.312c0-1.121,0.399-2.081,1.198-2.88C286.369,64.635,287.33,64.235,288.451,64.235z M292.528,72.389v24.464h12.232c3.364,0,6.243-1.198,8.639-3.593c2.395-2.395,3.593-5.275,3.593-8.639 c0-3.364-1.198-6.243-3.593-8.639s-5.275-3.593-8.639-3.593L292.528,72.389L292.528,72.389z M292.528,105.008v32.618h16.309 c4.518,0,8.366-1.588,11.544-4.765c3.177-3.177,4.765-7.025,4.765-11.544c0-4.518-1.588-8.366-4.765-11.544 c-3.178-3.177-7.026-4.765-11.544-4.765L292.528,105.008L292.528,105.008z M373.557,134.468c0.915,0,1.698,0.326,2.35,0.977 c0.652,0.652,0.977,1.435,0.977,2.35s-0.319,1.705-0.957,2.371c-4.298,3.743-9.358,5.615-15.181,5.615 c-6.433,0-11.923-2.273-16.47-6.821c-4.548-4.547-6.821-10.037-6.821-16.47c0-6.432,2.273-11.922,6.821-16.47 c4.547-4.547,10.037-6.821,16.47-6.821s11.923,2.274,16.47,6.821c4.547,4.548,6.821,10.038,6.821,16.47 c0,0.915-0.326,1.699-0.977,2.35c-0.652,0.652-1.435,0.977-2.35,0.977h-36.309c0.609,3.189,2.135,6.004,4.575,8.443 c3.244,3.244,7.168,4.866,11.77,4.866c4.159,0,7.736-1.316,10.731-3.951C372.087,134.704,372.781,134.468,373.557,134.468z M377.092,119.162c-0.61-3.188-2.135-6.003-4.575-8.443c-3.244-3.244-7.168-4.866-11.77-4.866s-8.526,1.622-11.77,4.866 c-2.44,2.44-3.966,5.255-4.575,8.443H377.092z M427.356,138.793c-4.658,4.658-10.204,6.987-16.637,6.987s-11.923-2.273-16.47-6.821 c-4.547-4.547-6.821-10.037-6.821-16.47c0-6.432,2.274-11.922,6.821-16.47c4.547-4.547,10.037-6.821,16.47-6.821 s11.923,2.274,16.47,6.821c4.547,4.548,6.821,10.038,6.821,16.47v19.964c0,0.915-0.326,1.699-0.977,2.35 c-0.652,0.652-1.435,0.977-2.35,0.977s-1.698-0.326-2.35-0.977s-0.977-1.435-0.977-2.35L427.356,138.793L427.356,138.793z M410.72,105.853c-4.603,0-8.526,1.622-11.77,4.866s-4.866,7.168-4.866,11.77c0,4.603,1.622,8.526,4.866,11.77 s7.168,4.866,11.77,4.866s8.526-1.622,11.77-4.866s4.866-7.168,4.866-11.77s-1.622-8.526-4.866-11.77 C419.246,107.475,415.322,105.853,410.72,105.853z M439.849,102.526c0-0.915,0.326-1.698,0.977-2.35 c0.652-0.651,1.435-0.977,2.35-0.977s1.698,0.326,2.35,0.977c0.652,0.652,0.977,1.435,0.977,2.35v3.66 c4.658-4.658,10.204-6.987,16.637-6.987c3.244,0,6.225,0.555,8.942,1.664c0.499,0.194,0.957,0.485,1.373,0.873 c0.638,0.665,0.957,1.456,0.957,2.371s-0.326,1.699-0.977,2.35c-0.652,0.652-1.435,0.977-2.35,0.977 c-0.527,0-1.012-0.11-1.456-0.333c-1.969-0.832-4.131-1.248-6.488-1.248c-4.603,0-8.526,1.622-11.77,4.866s-4.866,7.168-4.866,11.77 v19.964c0,0.915-0.326,1.699-0.977,2.35c-0.652,0.652-1.435,0.977-2.35,0.977s-1.698-0.326-2.35-0.977s-0.977-1.435-0.977-2.35 v-39.927H439.849z"/></symbol></svg>
