<svg xmlns="http://www.w3.org/2000/svg" viewBox="0 0 500 500"><path d="M160.092,275.429c-11.592-23.263-47.477-73.813-66.259-96.596c-22.211-26.942-39-49-69.143-81.145c-2.483-3.117-4.308-6.604-1.911-10.623c2.625-4.402,5.833-8.44,11.588-7.975c8.235,0.665,107.343,14.034,113.425,14.842c2.413-13.605,4.737-26.84,7.119-40.065c0.805-4.472,1.674-8.936,2.655-13.372c4.497-20.336,18.297-31.322,37.363-36.881c16.564-4.829,41.235,2.017,53.571,14.218c11.389,11.264,16.667,30,13.314,54.166c-4.182,15.955-7.945,32.019-12.009,48.585c36.07,11.672,72.407,23.43,109.564,35.453c3.055-5.404,16.052-33.427,23.873-43.054c10.283-12.659,27.021-24.83,43.344-23.856C460,95,482.5,109.5,488.677,138c3.189,23.563,1.323,61.5-11.609,96.061c-4.884,9.719-6.061,20.008-6.468,30.449c-1.069,27.439-1.493,54.905-2.691,82.338c-1.093,25.021-5.148,49.612-13.178,73.421c-5.845,17.33-13.521,32.675-28.543,45.12c-40.021,25.112-76.355,31.112-128.336,31.037c-30.686-1.926-62.686-9.926-87.093-31.387c-28.913-25.991-57.804-52.081-83.946-81.006c-29.25-32.364-98.326-106.866-103.171-112.156c-2.312-2.524-4.4-5.328-3.108-9.26c0.748-2.276,1.891-3.385,4.452-3.198c9.847-1.919,43.751,0.977,64.513,3.747C120.833,266.833,158.231,275.191,160.092,275.429z" fill="#FFB235"/><path d="M366.909,262.666c-0.068,3.7-1.751,9.893-5.235,15.535 c-3.24,5.247-8.841,7.913-13.567,6.63c-5.824-1.581-10.024-6.426-9.967-12.732c0.052-5.866,0.532-11.818,1.681-17.56 c1.398-6.985,8.919-12.783,14.461-12.036C362.274,243.579,366.959,249.967,366.909,262.666z M201.956,215.75 c3.362,7.593,14.569,8.312,19.358,1.521c4.961-7.035,7.141-15.213,7.055-23.734c-0.074-7.349-4.971-12.548-11.276-13.149 c-7.077-0.674-12.034,2.952-13.928,10.637C202.217,194.873,199.79,209.417,201.956,215.75z" fill="#393939"/></svg>
